<svg width="18" height="10" viewBox="0 0 18 10" fill="none" xmlns="http://www.w3.org/2000/svg">
<path d="M9.84622 2.86277V1.61459C9.84622 1.47591 9.70754 1.33722 9.56885 1.33722H7.26665C7.12797 1.33722 6.98928 1.47591 6.98928 1.61459V2.5854C6.68417 2.5854 5.32504 2.5854 5.04767 2.5854V1.61459C5.04767 1.47591 4.93672 1.33722 4.7703 1.33722H2.4681C2.30168 1.33722 2.19073 1.47591 2.19073 1.61459V2.86277C1.49729 3.08467 0.970284 3.52847 0.776123 4.2219H11.2608C11.0389 3.55621 10.5397 3.11241 9.84622 2.86277ZM13.4798 9.02045C13.4798 9.15914 13.6185 9.29783 13.7572 9.29783H17.2798C17.4462 9.29783 17.5572 9.15914 17.5572 9.02045V7.24527H13.4798V9.02045ZM17.2798 5.27592H13.7572C13.6185 5.27592 13.4798 5.4146 13.4798 5.55329V6.69052H17.5572V5.55329C17.5572 5.38687 17.4462 5.27592 17.2798 5.27592ZM15.5878 6.21899H15.4214C15.255 6.21899 15.144 6.10804 15.144 5.94161C15.144 5.77519 15.255 5.66424 15.4214 5.66424H15.5878C15.7543 5.66424 15.8652 5.77519 15.8652 5.94161C15.8652 6.10804 15.7543 6.21899 15.5878 6.21899ZM14.2287 3.00146H15.2273V4.2219H14.8944C14.728 4.2219 14.617 4.36059 14.617 4.49927V4.69343H16.3922V4.49927C16.3922 4.36059 16.2535 4.2219 16.1149 4.2219H15.782V3.00146H16.9192C17.0024 3.00146 17.0857 2.97372 17.1411 2.91825C17.1966 2.86277 17.2243 2.77956 17.1966 2.69635L16.8083 0.505101C16.7805 0.366415 16.6696 0.283203 16.5309 0.283203H14.617C14.4784 0.283203 14.3674 0.366415 14.3397 0.505101L13.9513 2.69635C13.9513 2.77956 13.9513 2.86277 14.0068 2.91825C14.09 2.97372 14.1455 3.00146 14.2287 3.00146Z" fill="#797979"/>
</svg>
