<svg width="15" height="16" viewBox="0 0 15 16" fill="none" xmlns="http://www.w3.org/2000/svg">
<path d="M3.33676 8.72048L4.6029 9.98662L5.447 9.14253L4.18145 7.87638L5.447 6.61024L7.13578 8.29843L7.97988 7.45434L6.29229 5.76555L7.55783 4.49941L8.82397 5.76555L9.66866 4.92146L8.40193 3.65531L10.0907 1.96653C10.3238 1.73349 10.7017 1.73349 10.9348 1.96653L13.8897 4.92146C14.1228 5.15457 14.1228 5.53244 13.8897 5.76555L5.02495 14.6303C4.79184 14.8634 4.41397 14.8634 4.18086 14.6303L1.22593 11.6754C0.992887 11.4423 0.992887 11.0644 1.22593 10.8313L3.33676 8.72048Z" fill="#797979"/>
</svg>
