<svg width="24" height="24" viewBox="0 0 24 24" fill="none" xmlns="http://www.w3.org/2000/svg">
<path fill-rule="evenodd" clip-rule="evenodd" d="M13.3416 0.0614678C13.1857 0.151569 6.06004 7.74403 5.97914 7.9062C5.82394 8.21732 5.94294 8.665 6.23135 8.85491C6.39311 8.96144 6.46295 8.96245 13.6479 8.96224C20.7534 8.96208 20.9044 8.95995 21.0614 8.85789C21.4046 8.63496 21.4843 8.11905 21.2315 7.75683C21.0679 7.52227 14.2724 0.293043 14.0482 0.115027C13.8887 -0.0116694 13.5169 -0.0398895 13.3416 0.0614678ZM18.849 3.09493L19.9499 4.26913L19.9652 3.375C19.9827 2.35044 19.9442 2.20123 19.6164 2.02305C19.4531 1.93428 19.3174 1.92079 18.5881 1.92079H17.748L18.849 3.09493ZM7.30901 11.7364V13.0167L10.3003 13.0177C13.6137 13.0187 13.6867 13.0249 14.3004 13.3541C15.3662 13.926 16.0011 15.2086 15.8232 16.4304C15.7921 16.6441 15.773 16.8254 15.7807 16.8334C15.7931 16.8463 19.3122 15.8838 19.7872 15.7375L19.975 15.6798V13.068V10.4561H13.642H7.30901V11.7364ZM0.363067 13.3168C0.273755 13.3643 0.155506 13.4811 0.100236 13.5763C0.00161212 13.7464 -0.000190192 13.8374 1.00599e-05 18.6244C0.000160249 23.3652 0.00286362 23.5039 0.0979333 23.67C0.291427 24.0083 0.313705 24.0116 2.24974 23.9946L3.99689 23.9793L4.13081 23.846C4.41967 23.5582 4.40535 23.8307 4.40535 18.6181C4.40535 13.4054 4.41967 13.6779 4.13081 13.3902L3.99689 13.2568L2.26121 13.2436C0.745348 13.2321 0.504896 13.2414 0.363067 13.3168ZM5.80712 18.7243V22.9414L10.1 22.9269L14.3929 22.9124L18.6622 21.2188C21.0103 20.2873 23.0428 19.4651 23.1787 19.3917C23.7142 19.1026 24.0035 18.6232 24 18.0313C23.9964 17.435 23.716 16.9719 23.204 16.7167C22.717 16.474 22.7339 16.4705 17.9724 17.8037L13.642 19.0163L11.529 19.0333C10.1568 19.0443 9.34733 19.0305 9.22027 18.9941C8.67868 18.8387 8.51042 18.147 8.91388 17.7348L9.06762 17.5778L11.2046 17.5512C13.2434 17.5257 13.3521 17.5193 13.5694 17.4121C14.5154 16.9457 14.7326 15.6699 13.9901 14.9407C13.5519 14.5102 13.8536 14.5389 9.59939 14.5222L5.80712 14.5072V18.7243Z" fill="currentColor"/>
</svg>
