<svg width="18" height="18" viewBox="0 0 18 18" fill="none" xmlns="http://www.w3.org/2000/svg">
<path fill-rule="evenodd" clip-rule="evenodd" d="M5.49762 1.5H12.4951C15.0451 1.5 16.5001 2.94 16.5001 5.4975V12.5025C16.5001 15.045 15.0526 16.5 12.5026 16.5H5.49762C2.94012 16.5 1.50012 15.045 1.50012 12.5025V5.4975C1.50012 2.94 2.94012 1.5 5.49762 1.5ZM9.61512 9.6225H11.7451C12.0901 9.615 12.3676 9.3375 12.3676 8.9925C12.3676 8.6475 12.0901 8.37 11.7451 8.37H9.61512V6.255C9.61512 5.91 9.33762 5.6325 8.99262 5.6325C8.64762 5.6325 8.37012 5.91 8.37012 6.255V8.37H6.24762C6.08262 8.37 5.92512 8.4375 5.80512 8.55C5.69262 8.67 5.62512 8.82675 5.62512 8.9925C5.62512 9.3375 5.90262 9.615 6.24762 9.6225H8.37012V11.745C8.37012 12.09 8.64762 12.3675 8.99262 12.3675C9.33762 12.3675 9.61512 12.09 9.61512 11.745V9.6225Z" fill="white"/>
</svg>
