<svg width="432" height="287" viewBox="0 0 432 287" fill="none" xmlns="http://www.w3.org/2000/svg">
<path opacity="0.5" fill-rule="evenodd" clip-rule="evenodd" d="M91.1549 0.414674C91.059 0.646909 88.7392 1.38398 86.0001 2.05238C78.9466 3.77343 70.5672 7.72667 59.7885 14.4185C58.7793 15.045 55.5946 16.9306 52.7113 18.6092C49.8281 20.2883 46.6433 22.1824 45.6342 22.8188C44.6251 23.4552 38.4915 27.1013 32.0042 30.9213C25.5168 34.7409 19.1992 38.5447 17.9657 39.3741C16.7317 40.2039 15.6292 40.8823 15.516 40.8823C15.4022 40.8823 12.1656 42.8052 8.32298 45.1553C4.48036 47.5054 0.0390625 50.1848 -1.54674 51.109C-3.13254 52.0327 -6.08134 53.8062 -8.09964 55.0491C-15.8127 59.7992 -36.0454 72.0914 -39.5536 74.1585C-43.6468 76.5705 -45.6772 77.8008 -54.1503 83.006C-57.367 84.9823 -61.0602 87.1967 -62.3577 87.928C-65.608 89.7586 -70.6988 92.6875 -74.4376 94.8783C-76.1602 95.8874 -79.9855 98.1028 -82.9386 99.8008C-89.6204 103.644 -94.0528 106.25 -96.4328 107.737C-97.442 108.367 -101.688 110.843 -105.869 113.239C-114.132 117.974 -116.3 119.236 -125.003 124.375C-131.228 128.051 -147.12 136.817 -147.56 136.817C-147.707 136.817 -148.744 137.395 -149.863 138.101C-150.981 138.807 -153.984 140.472 -156.536 141.8C-159.088 143.128 -161.529 144.428 -161.962 144.689C-163.276 145.481 -189.353 159.603 -191.319 160.586C-193.321 161.588 -196.925 163.549 -201.017 165.863C-215.662 174.143 -224.294 185.839 -226.405 200.26C-226.763 202.705 -227.272 205.694 -227.536 206.903C-228.165 209.787 -228.151 219.633 -227.514 222.428C-227.238 223.637 -226.391 228.754 -225.631 233.8C-224.372 242.163 -223.589 247.082 -221.455 260.012C-221.051 262.462 -220.097 268.596 -219.334 273.642C-218.572 278.687 -217.762 283.877 -217.535 285.175C-217.308 286.472 -216.608 290.954 -215.981 295.135C-215.354 299.316 -214.361 305.567 -213.775 309.027C-211.842 320.447 -211.261 324.149 -210.197 331.831C-209.617 336.012 -208.916 340.612 -208.639 342.054C-207.808 346.378 -207.148 350.622 -206.273 357.257C-205.53 362.896 -205.03 366.091 -203.361 375.867C-203.09 377.453 -202.505 381.463 -202.062 384.779C-199.668 402.672 -197.91 411.008 -195.176 417.433C-188.279 433.639 -175.473 446.308 -160.127 452.106C-151.788 455.257 -148.549 455.813 -138.634 455.801C-130.991 455.792 -129.087 455.618 -125.266 454.583C-121.308 453.509 -107.401 449.186 -105.345 448.389C-103.302 447.597 -84.9757 441.252 -83.5891 440.856C-82.7241 440.609 -79.8933 439.667 -77.2983 438.761C-74.7034 437.855 -71.8725 436.91 -71.0076 436.66C-70.1426 436.411 -64.9527 434.654 -59.4744 432.757C-53.9962 430.859 -44.3241 427.548 -37.9809 425.398C-23.9404 420.638 -15.8226 417.827 -9.93446 415.684C-7.48367 414.792 -4.77077 413.857 -3.90579 413.605C-2.45052 413.182 11.352 408.371 13.1318 407.668C13.5643 407.496 16.1592 406.62 18.8983 405.72C21.6374 404.819 24.2324 403.95 24.6649 403.788C26.1416 403.234 44.8269 396.838 56.5818 392.863C63.0351 390.68 68.6967 388.691 69.1633 388.442C69.6294 388.193 71.0726 387.637 72.3701 387.207C73.6675 386.777 76.6163 385.684 78.923 384.778C81.2296 383.872 84.5323 382.643 86.2622 382.047C87.9922 381.451 89.6435 380.791 89.9319 380.581C90.2202 380.371 91.7536 379.783 93.3394 379.274C94.9252 378.765 96.4586 378.181 96.7469 377.975C97.0352 377.769 99.2401 376.926 101.646 376.101L106.022 374.602L108.723 375.989C110.21 376.752 113.844 378.452 116.799 379.767C130.34 385.792 133.193 387.083 137.213 389.011C139.575 390.143 141.653 391.07 141.831 391.07C142.01 391.07 144.11 392.003 146.499 393.142C148.888 394.283 152.943 396.144 155.511 397.279C161.251 399.816 171.378 404.425 176.835 406.983C179.075 408.034 181.027 408.894 181.171 408.894C181.315 408.894 183.492 409.869 186.009 411.06C190.745 413.302 196.672 415.91 202.118 418.148C203.848 418.859 206.287 419.91 207.54 420.484C208.792 421.057 211.151 422.018 212.782 422.619C214.413 423.22 215.984 423.882 216.272 424.091C216.56 424.3 218.565 425.128 220.728 425.931C222.89 426.735 224.902 427.58 225.2 427.809C225.496 428.039 227.501 428.929 229.656 429.787C235.034 431.929 239.936 433.95 242.746 435.184C244.043 435.754 252.536 439.342 261.618 443.157C277.121 449.67 278.126 450.174 278.044 451.381C277.912 453.352 275.899 465.033 274.481 472.064C273.783 475.524 272.835 480.713 272.373 483.597C271.646 488.137 270.485 493.941 268.965 500.634C268.736 501.643 268.147 504.238 267.656 506.401C267.165 508.563 266.425 511.984 266.011 514.002C265.068 518.597 264.469 520.031 263.494 520.031C263.073 520.031 260.059 519.2 256.799 518.185C253.539 517.169 248.158 515.507 244.843 514.492C233.049 510.88 230.372 510.057 225.97 508.693C223.519 507.934 219.981 506.884 218.107 506.359C216.233 505.836 213.166 504.917 211.292 504.319C208.019 503.273 203.362 501.843 196.089 499.649C194.215 499.083 187.138 496.704 180.362 494.361C173.586 492.018 166.273 489.553 164.111 488.882C161.948 488.211 157.348 486.673 153.888 485.466C150.428 484.257 145.356 482.561 142.617 481.696C136.755 479.846 130.731 477.8 123.483 475.201C118.568 473.437 116.363 472.785 106.838 470.276C104.748 469.726 101.386 469.124 99.368 468.94C95.7891 468.613 94.0523 468.836 87.0486 470.525C85.1744 470.977 82.2256 471.671 80.4957 472.068C78.7657 472.464 75.3451 473.28 72.8943 473.881C70.4435 474.482 67.0229 475.308 65.2929 475.715C63.563 476.122 58.373 477.436 53.7598 478.634C43.6274 481.266 39.8875 482.172 36.5382 482.806C35.1401 483.071 33.2529 483.505 32.3444 483.77C31.4364 484.035 28.2166 484.78 25.1891 485.426C22.1617 486.072 18.5052 486.907 17.0635 487.281C14.1063 488.049 10.2134 488.954 7.1031 489.597C5.12622 490.005 2.90242 490.555 -7.83752 493.289C-10.2883 493.913 -13.3986 494.625 -14.7485 494.871C-16.0989 495.117 -17.6323 495.539 -18.156 495.81C-18.6802 496.081 -20.0522 496.468 -21.2055 496.671C-22.3588 496.873 -24.9537 497.509 -26.972 498.084C-35.3524 500.472 -43.6929 502.904 -49.514 504.659C-55.0258 506.32 -57.8713 507.119 -64.1925 508.778C-67.0758 509.534 -70.1426 510.37 -71.0076 510.636C-71.8725 510.901 -74.7034 511.71 -77.2983 512.434C-79.8933 513.157 -83.196 514.089 -84.6376 514.503C-86.0792 514.919 -89.4998 515.883 -92.239 516.646C-98.4296 518.371 -103.837 519.908 -106.917 520.818C-108.215 521.202 -110.256 521.774 -111.453 522.09C-115.036 523.036 -121.625 526.252 -125.261 528.829C-134.884 535.649 -141.697 544.758 -146.54 557.283C-151.377 569.793 -152.381 578.478 -150.447 591.079C-147.12 612.753 -136.888 628.869 -119.761 639.414C-106.506 647.575 -91.5664 649.542 -76.9398 645.052C-75.4069 644.582 -72.0298 643.652 -69.4348 642.985C-64.4504 641.704 -57.6831 639.602 -50.3004 637.041C-43.3574 634.632 -32.4592 630.652 -29.8553 629.576C-28.5578 629.039 -24.0756 627.26 -19.8949 625.621C-15.7141 623.983 -11.3499 622.22 -10.1966 621.703C-7.87265 620.662 -1.92261 618.139 2.90924 616.146C4.63921 615.433 7.76205 614.038 9.84903 613.048C11.936 612.058 13.7865 611.247 13.9622 611.247C14.1373 611.247 15.993 610.435 18.0858 609.442C20.1785 608.448 22.5742 607.472 23.4088 607.273C24.2439 607.072 25.1629 606.734 25.4512 606.521C25.7396 606.308 26.5652 605.964 27.286 605.757C29.0721 605.243 47.7343 598.699 49.0417 598.128C49.6184 597.876 51.2697 597.299 52.7113 596.846C54.153 596.392 55.8043 595.811 56.381 595.556C56.9576 595.3 59.4346 594.452 61.8854 593.672C64.3362 592.892 67.1671 591.939 68.1762 591.554C69.8008 590.935 73.1475 590.014 83.3789 587.37C84.9648 586.96 88.5033 586.124 91.2424 585.511C93.9815 584.898 97.367 584.087 98.7657 583.709C101.571 582.952 102.415 583.137 108.115 585.761C109.755 586.515 111.256 587.133 111.451 587.133C111.645 587.133 114.314 588.108 117.382 589.301C120.449 590.494 125.671 592.518 128.987 593.8C132.303 595.082 136.667 596.808 138.685 597.635C145.21 600.309 168.989 609.764 172.498 611.08C174.373 611.783 176.614 612.699 177.479 613.118C179.308 614.002 185.649 616.293 193.468 618.893C196.495 619.9 199.444 620.941 200.021 621.207C200.597 621.473 205.197 623.018 210.243 624.64C215.289 626.262 219.889 627.782 220.466 628.018C221.484 628.434 228.186 630.554 235.668 632.826C237.687 633.439 240.636 634.358 242.221 634.868C244.835 635.709 246.969 636.338 257.948 639.506C259.823 640.046 262.653 640.869 264.239 641.333C269.554 642.888 278.619 644.729 282.587 645.058C284.75 645.237 288.642 645.607 291.237 645.879C295.123 646.287 297.018 646.198 301.984 645.372C308.576 644.276 312.016 643.478 313.404 642.722C313.899 642.453 315.714 641.731 317.438 641.119C332.346 635.821 348.157 620.094 353.342 605.403C354.734 601.462 360.987 577.011 364.584 561.445C365.35 558.13 366.317 554.001 366.732 552.271C367.147 550.541 367.859 547.239 368.315 544.932C368.77 542.625 369.35 539.794 369.603 538.641C369.856 537.488 370.328 535.011 370.652 533.137C370.977 531.263 371.557 528.314 371.943 526.584C373.188 521.003 373.734 518.29 374.579 513.478C375.508 508.193 376.227 504.487 377.226 499.848C378.356 494.602 379.456 488.543 380.082 484.121C380.409 481.814 380.995 478.512 381.386 476.782C381.776 475.052 382.371 471.631 382.708 469.18C383.045 466.73 383.565 463.427 383.864 461.841C384.8 456.868 385.711 451.329 387.36 440.597C387.627 438.86 388.092 436.501 388.393 435.355C388.695 434.208 389.204 431.147 389.524 428.552C389.844 425.957 390.426 422.301 390.817 420.427C392.53 412.22 393.352 405.009 394.082 391.793C394.363 386.705 393.539 381.174 391.563 374.864C389.009 366.709 384.116 359.662 377.735 354.947C372.478 351.063 370.086 349.998 357.028 345.73C353.713 344.646 350.292 343.444 349.427 343.059C348.562 342.673 345.613 341.544 342.874 340.55C340.135 339.555 334.119 337.282 329.506 335.498C324.893 333.714 320.175 331.937 319.021 331.55C317.868 331.162 315.037 330.108 312.731 329.206C308.435 327.528 306.048 326.628 299.625 324.266C297.607 323.523 295.483 322.7 294.907 322.437C294.33 322.174 290.556 320.731 286.519 319.231C278.051 316.084 268.063 312.194 265.026 310.861C260.725 308.973 242.333 301.426 242.032 301.426C241.861 301.426 240.004 300.629 237.908 299.655C235.811 298.682 233.506 297.705 232.785 297.487C232.064 297.268 230.059 296.445 228.329 295.659C226.599 294.874 224.594 294.047 223.873 293.823C223.152 293.599 221.383 292.88 219.941 292.224C216.859 290.822 209.536 287.762 205.722 286.283C204.244 285.71 202.003 284.773 200.741 284.2C199.48 283.626 194.791 281.625 190.322 279.752C178.804 274.924 173.6 272.689 171.181 271.53C170.024 270.976 167.075 269.713 164.628 268.725C159.532 266.665 151.203 263.074 148.122 261.607C146.968 261.058 144.845 260.147 143.404 259.581C141.962 259.016 139.485 257.959 137.899 257.233C128.577 252.964 124.467 251.384 114.941 248.409C112.025 247.498 103.767 246.401 99.7555 246.391C95.8615 246.381 87.1912 247.558 83.9032 248.543C80.9109 249.439 74.8025 251.649 73.7766 252.207C73.2529 252.492 71.1297 253.399 69.0585 254.222C65.5367 255.623 63.2012 256.576 51.5318 261.373C49.0092 262.41 45.7653 263.711 44.3236 264.263C42.882 264.815 41.2553 265.523 40.7085 265.837C40.1612 266.15 38.156 266.992 36.2525 267.707C34.3485 268.421 32.0828 269.327 31.2178 269.718C30.3528 270.109 24.927 272.347 19.1604 274.69C13.3939 277.033 7.96808 279.268 7.1031 279.657C6.23811 280.045 4.54747 280.623 3.34593 280.942C2.14438 281.261 0.493057 281.87 -0.3237 282.297C-1.14046 282.723 -2.07202 283.073 -2.39442 283.075C-2.71631 283.076 -4.13173 283.524 -5.53983 284.071C-6.94739 284.616 -10.2228 285.818 -12.8177 286.741C-15.4127 287.663 -17.8923 288.598 -18.3285 288.82C-18.7646 289.041 -20.5339 289.631 -22.2602 290.131C-23.9865 290.631 -25.6352 291.23 -25.9236 291.461C-26.2119 291.691 -27.2735 292.123 -28.2826 292.419C-29.2917 292.715 -32.4765 293.822 -35.3597 294.879C-38.243 295.937 -41.4277 297.041 -42.4369 297.333C-43.446 297.626 -44.5076 298.046 -44.7959 298.266C-45.0842 298.486 -46.6176 299.068 -48.2034 299.559C-49.7892 300.05 -51.5585 300.663 -52.1352 300.921C-53.2046 301.398 -57.7953 303.056 -61.5714 304.328C-62.7247 304.716 -65.5555 305.774 -67.8622 306.679C-70.1688 307.584 -74.4151 309.115 -77.2983 310.083C-80.1816 311.05 -85.6499 312.919 -89.45 314.236C-93.2502 315.552 -96.8433 316.629 -97.4346 316.629C-98.7436 316.629 -98.4563 317.932 -101.189 299.591C-101.49 297.573 -102.057 294.152 -102.45 291.99C-102.843 289.827 -103.415 286.643 -103.721 284.913C-104.028 283.183 -104.623 279.88 -105.044 277.573C-105.465 275.267 -106.413 269.487 -107.149 264.73C-107.885 259.972 -108.705 254.9 -108.97 253.459C-109.236 252.017 -109.855 248.478 -110.346 245.595C-110.837 242.712 -111.542 238.957 -111.911 237.251C-112.281 235.545 -112.472 233.894 -112.336 233.581C-112.199 233.269 -110.865 232.419 -109.371 231.691C-103.197 228.685 -87.1518 220.164 -76.5581 214.264C-70.3339 210.798 -63.8256 207.207 -62.0956 206.285C-59.0178 204.644 -56.7951 203.425 -51.0322 200.219C-49.4621 199.345 -46.8855 197.933 -45.3071 197.081C-43.7286 196.228 -41.1452 194.834 -39.5667 193.981C-37.9882 193.129 -35.4525 191.741 -33.9312 190.897C-32.4104 190.053 -29.8684 188.659 -28.2826 187.8C-22.5842 184.711 -15.6213 180.64 -11.5072 177.991C-10.498 177.342 -8.61078 176.183 -7.31329 175.415C-6.01582 174.648 -4.60039 173.79 -4.16791 173.508C-3.73541 173.226 -0.904556 171.51 2.12289 169.694C5.15033 167.878 8.21709 166.03 8.93791 165.587C10.4498 164.656 19.1762 159.563 20.7331 158.701C22.1585 157.913 26.29 155.521 34.1011 150.963C37.7052 148.86 43.6028 145.445 47.2069 143.374C50.811 141.304 54.6269 139.041 55.6869 138.344C57.8389 136.931 59.0939 136.157 74.7291 126.594C80.784 122.891 87.8611 118.52 90.4561 116.881C93.051 115.241 95.6596 113.747 96.2525 113.56C97.0211 113.318 100.558 114.853 108.572 118.908C114.755 122.036 131.608 130.562 146.025 137.855C197.485 163.885 211.703 171.093 222.563 176.654C228.618 179.755 238.761 184.951 245.105 188.201C266.16 198.988 275.639 203.677 297.004 213.876C299.887 215.252 305.785 218.085 310.109 220.171C314.434 222.257 320.568 225.202 323.74 226.715C334.394 231.797 343.106 236.003 347.33 238.102C349.637 239.249 352.939 240.777 354.669 241.499C356.399 242.221 358.522 243.133 359.387 243.527C364.714 245.95 369.327 246.965 376.425 247.277C382.314 247.537 385.117 247.122 391.89 244.989C404.445 241.035 413.806 233.772 421.37 222.116C426.857 213.66 428.986 208.48 430.786 199.201C431.734 194.319 431.432 182.166 430.285 179.018C429.865 177.864 429.103 175.623 428.593 174.037C426.29 166.881 420.777 158.391 415.542 153.942C409.945 149.185 407.161 147.509 396.608 142.545C393.436 141.054 388.836 138.887 386.385 137.73C383.935 136.574 380.042 134.745 377.735 133.667C371.026 130.529 363.649 127.022 355.018 122.865C350.597 120.736 346.897 118.993 346.796 118.993C346.695 118.993 343.353 117.437 339.37 115.535C335.386 113.633 330.476 111.295 328.458 110.339C326.439 109.383 322.193 107.372 319.021 105.87C308.748 101.006 303.937 98.7204 297.528 95.6594C294.068 94.007 289.232 91.725 286.781 90.589C270.611 83.093 262.714 79.1424 220.728 57.5466C215.394 54.8033 206.076 50.0176 200.021 46.912C193.966 43.8065 184.883 39.145 179.838 36.5537C174.792 33.9619 165.592 29.2459 159.393 26.0738C153.194 22.9011 143.05 17.7091 136.851 14.5349C121.117 6.479 121.249 6.54505 117.454 4.82452C114.445 3.46047 110.51 2.34123 105.004 1.28438C104.066 1.10456 103.3 0.740223 103.3 0.474961C103.3 -0.117422 91.3997 -0.176136 91.1549 0.414674Z" fill="#EAD6F9"/>
</svg>
