<svg width="20" height="20" viewBox="0 0 20 20" fill="none" xmlns="http://www.w3.org/2000/svg">
<path d="M15.7822 7.24756C15.9484 7.24756 16.0996 7.32037 16.2188 7.44287C16.3296 7.57365 16.3853 7.73619 16.3691 7.90771C16.3679 7.98011 15.9252 13.584 15.6719 15.9448C15.513 17.3955 14.5775 18.276 13.1748 18.3003C12.0961 18.3245 11.0411 18.3335 10.0029 18.3335C8.90078 18.3335 7.8226 18.3245 6.77637 18.3003C5.42066 18.2676 4.48472 17.3714 4.33398 15.9448C4.07338 13.5756 3.63819 7.97979 3.62891 7.90771C3.6208 7.73608 3.67629 7.57369 3.78809 7.44287C3.89828 7.32041 4.05673 7.2476 4.22363 7.24756H15.7822ZM11.7207 1.6665C12.4572 1.66655 13.1151 2.18051 13.3057 2.91357L13.4424 3.52197C13.5526 4.0178 13.9822 4.36865 14.4766 4.36865H16.9062C17.2303 4.36883 17.5 4.63857 17.5 4.98096V5.29736C17.5 5.63139 17.2303 5.90851 16.9062 5.90869H3.09473C2.76982 5.90861 2.50003 5.63145 2.5 5.29736V4.98096C2.5 4.63851 2.7698 4.36874 3.09473 4.36865H5.52441C6.01798 4.36865 6.44756 4.01794 6.55859 3.52295L6.68555 2.95459C6.88332 2.18052 7.53456 1.66655 8.2793 1.6665H11.7207Z" fill="#E61B00"/>
</svg>
