<svg width="20" height="20" viewBox="0 0 20 20" fill="none" xmlns="http://www.w3.org/2000/svg">
<path d="M10.8334 10.0002C10.8334 9.53993 10.4603 9.16683 10.0001 9.16683C9.53984 9.16683 9.16675 9.53993 9.16675 10.0002C9.16675 10.4604 9.53984 10.8335 10.0001 10.8335C10.4603 10.8335 10.8334 10.4604 10.8334 10.0002Z" stroke="#9EA0AB" stroke-width="2" stroke-linecap="round" stroke-linejoin="round"/>
<path d="M16.6667 10.0002C16.6667 9.53993 16.2936 9.16683 15.8333 9.16683C15.3731 9.16683 15 9.53993 15 10.0002C15 10.4604 15.3731 10.8335 15.8333 10.8335C16.2936 10.8335 16.6667 10.4604 16.6667 10.0002Z" stroke="#9EA0AB" stroke-width="2" stroke-linecap="round" stroke-linejoin="round"/>
<path d="M5.00004 10.0002C5.00004 9.53993 4.62694 9.16683 4.16671 9.16683C3.70647 9.16683 3.33337 9.53993 3.33337 10.0002C3.33337 10.4604 3.70647 10.8335 4.16671 10.8335C4.62694 10.8335 5.00004 10.4604 5.00004 10.0002Z" stroke="#9EA0AB" stroke-width="2" stroke-linecap="round" stroke-linejoin="round"/>
</svg>
