<svg width="48" height="48" viewBox="0 0 48 48" fill="none" xmlns="http://www.w3.org/2000/svg">
<path d="M32.668 4C39.4462 4.00016 43.9998 8.75615 44 15.833V32.167C43.9998 39.2438 39.4462 43.9998 32.666 44H15.332C8.55378 43.9998 4.00019 39.2439 4 32.167V15.833C4.00019 8.75615 8.55378 4.00016 15.332 4H32.668ZM34.873 25.1006C32.7295 23.7634 31.0748 25.6402 30.6279 26.2412C30.1975 26.8212 29.8277 27.4617 29.4375 28.1016C28.4842 29.6805 27.3914 31.5008 25.501 32.5596C22.7539 34.0805 20.6682 32.6788 19.168 31.6592C18.6049 31.2795 18.0577 30.9201 17.5127 30.6807C16.1694 30.101 14.9607 30.7618 13.167 33.04C12.2258 34.231 11.2919 35.4114 10.3467 36.5879C9.78159 37.2917 9.91655 38.378 10.6787 38.8486C11.8955 39.5979 13.3803 40 15.0576 40H31.9131C32.8643 40 33.8176 39.8704 34.7266 39.5732C36.7739 38.9045 38.3984 37.3723 39.2471 35.3496C39.963 33.649 40.3112 31.5853 39.6416 29.8682C39.4184 29.2986 39.0846 28.7681 38.6162 28.3018C37.3874 27.082 36.2386 25.9427 34.873 25.1006ZM16.998 12C14.2408 12 12 14.2435 12 17C12 19.7565 14.2408 22 16.998 22C19.7532 21.9998 21.9951 19.7564 21.9951 17C21.9951 14.2436 19.7532 12.0002 16.998 12Z" fill="#ACB1BB"/>
</svg>
