<svg width="20" height="20" viewBox="0 0 20 20" fill="none" xmlns="http://www.w3.org/2000/svg">
<path d="M16.6582 15.794C17.1224 15.7941 17.5 16.1773 17.5 16.6476C17.4999 17.1186 17.1224 17.5001 16.6582 17.5001H11.8994C11.4354 17.4999 11.0578 17.1185 11.0576 16.6476C11.0576 16.1774 11.4353 15.7942 11.8994 15.794H16.6582ZM10.2012 3.29795C10.9617 2.32152 12.2884 2.23209 13.3584 3.08311L14.5869 4.05869C15.091 4.45285 15.427 4.97319 15.542 5.51963C15.6746 6.12063 15.5336 6.71124 15.1358 7.22178L7.81349 16.6896C7.47752 17.1195 6.98263 17.3622 6.45216 17.3712L3.53322 17.4063C3.37425 17.4061 3.24141 17.2987 3.20607 17.1466L2.54298 14.2716C2.42805 13.7432 2.54306 13.1965 2.87892 12.7755L8.07033 6.05674C8.15876 5.94936 8.31776 5.93217 8.42384 6.01182L10.6084 7.7501C10.7499 7.86636 10.9443 7.92928 11.1475 7.90244C11.5807 7.8487 11.8723 7.4543 11.8281 7.0333C11.8016 6.81851 11.696 6.63931 11.5547 6.50498C11.5105 6.46915 9.43166 4.80283 9.43166 4.80283C9.29907 4.69532 9.27282 4.49781 9.37892 4.36436L10.2012 3.29795Z" fill="#515151"/>
</svg>
