<svg width="21" height="21" viewBox="0 0 21 21" fill="none" xmlns="http://www.w3.org/2000/svg">
<path fill-rule="evenodd" clip-rule="evenodd" d="M4.81666 0.733398H16.25C16.74 0.733398 17.0667 1.06007 17.0667 1.55007V19.5167C17.0667 20.0067 16.74 20.3334 16.25 20.3334H11.35V17.0667H9.71666V20.3334H4.81666C4.32666 20.3334 3.99999 20.0067 3.99999 19.5167V1.55007C3.99999 1.06007 4.32666 0.733398 4.81666 0.733398ZM6.44998 14.6168H8.89998V12.9835H6.44998V14.6168ZM8.89998 11.3501H6.44998V9.7168H8.89998V11.3501ZM6.44998 8.08346H8.89998V6.45013H6.44998V8.08346ZM8.89998 4.8168H6.44998V3.18346H8.89998V4.8168ZM12.1666 14.6168H14.6166V12.9835H12.1666V14.6168ZM14.6166 11.3501H12.1666V9.7168H14.6166V11.3501ZM12.1666 8.08346H14.6166V6.45013H12.1666V8.08346ZM14.6166 4.8168H12.1666V3.18346H14.6166V4.8168ZM2.36666 19.5167V11.3501H1.54999C1.05999 11.3501 0.733322 11.6767 0.733322 12.1667V19.5167C0.733322 20.0067 1.05999 20.3334 1.54999 20.3334H2.36666V19.5167ZM18.7 20.3334H19.5167C20.0067 20.3334 20.3333 20.0067 20.3333 19.5167V12.1667C20.3333 11.6767 20.0067 11.3501 19.5167 11.3501H18.7V19.5167V20.3334Z" fill="white"/>
</svg>
