<svg width="23" height="23" viewBox="0 0 23 23" fill="none" xmlns="http://www.w3.org/2000/svg">
<path fill-rule="evenodd" clip-rule="evenodd" d="M8.86534 9.66956C8.89278 10.1843 8.49775 10.6238 7.98302 10.6513C7.28051 10.6887 6.7241 10.7345 6.2893 10.7804C5.70538 10.842 5.35059 11.2006 5.29161 11.7166C5.20693 12.4573 5.13333 13.5783 5.13333 15.2324C5.13333 16.8865 5.20693 18.0074 5.29161 18.7482C5.35069 19.265 5.70459 19.6226 6.28763 19.6842C7.30872 19.7919 8.99663 19.899 11.6667 19.899C14.3367 19.899 16.0246 19.7919 17.0457 19.6842C17.6287 19.6226 17.9826 19.265 18.0417 18.7482C18.1264 18.0074 18.2 16.8865 18.2 15.2324C18.2 13.5783 18.1264 12.4573 18.0417 11.7166C17.9827 11.2006 17.6279 10.842 17.044 10.7804C16.6092 10.7345 16.0528 10.6887 15.3503 10.6513C14.8356 10.6238 14.4405 10.1843 14.468 9.66956C14.4954 9.15483 14.9349 8.7598 15.4497 8.78724C16.1803 8.82619 16.7691 8.87436 17.2398 8.924C18.6253 9.07012 19.7304 10.053 19.8963 11.5045C19.9909 12.3318 20.0667 13.5258 20.0667 15.2324C20.0667 16.9389 19.9909 18.1329 19.8963 18.9602C19.7305 20.4108 18.6279 21.3942 17.2416 21.5405C16.1391 21.6569 14.3834 21.7657 11.6667 21.7657C8.94993 21.7657 7.19419 21.6569 6.09171 21.5405C4.7054 21.3942 3.60286 20.4108 3.43702 18.9602C3.34245 18.1329 3.26666 16.9389 3.26666 15.2324C3.26666 13.5258 3.34245 12.3318 3.43702 11.5045C3.60296 10.053 4.70807 9.07012 6.09351 8.924C6.56419 8.87436 7.15299 8.82619 7.88364 8.78724C8.39838 8.7598 8.8379 9.15483 8.86534 9.66956Z" fill="#777E91"/>
<path fill-rule="evenodd" clip-rule="evenodd" d="M9.05997 6.09239C8.69549 6.45688 8.10453 6.45688 7.74004 6.09239C7.37555 5.7279 7.37555 5.13694 7.74004 4.77246L11.0067 1.50579C11.3712 1.1413 11.9622 1.1413 12.3266 1.50579L15.5933 4.77246C15.9578 5.13694 15.9578 5.7279 15.5933 6.09239C15.2288 6.45688 14.6379 6.45688 14.2734 6.09239L12.6 4.41902V13.3658C12.6 13.8812 12.1821 14.2991 11.6667 14.2991C11.1512 14.2991 10.7333 13.8812 10.7333 13.3658V4.41902L9.05997 6.09239Z" fill="#777E91"/>
</svg>
