<svg width="359" height="308" viewBox="0 0 359 308" fill="none" xmlns="http://www.w3.org/2000/svg">
<path opacity="0.5" fill-rule="evenodd" clip-rule="evenodd" d="M319.155 -339.585C319.059 -339.353 316.739 -338.616 314 -337.948C306.947 -336.227 298.567 -332.273 287.788 -325.582C286.779 -324.955 283.595 -323.069 280.711 -321.391C277.828 -319.712 274.643 -317.818 273.634 -317.181C272.625 -316.545 266.491 -312.899 260.004 -309.079C253.517 -305.259 247.199 -301.455 245.966 -300.626C244.732 -299.796 243.629 -299.118 243.516 -299.118C243.402 -299.118 240.166 -297.195 236.323 -294.845C232.48 -292.495 228.039 -289.815 226.453 -288.891C224.867 -287.967 221.919 -286.194 219.9 -284.951C212.187 -280.201 191.955 -267.909 188.446 -265.842C184.353 -263.43 182.323 -262.199 173.85 -256.994C170.633 -255.018 166.94 -252.803 165.642 -252.072C162.392 -250.241 157.301 -247.313 153.562 -245.122C151.84 -244.113 148.014 -241.897 145.061 -240.199C138.38 -236.356 133.947 -233.75 131.567 -232.263C130.558 -231.633 126.312 -229.157 122.131 -226.761C113.868 -222.026 111.7 -220.764 102.996 -215.625C96.7718 -211.949 80.8797 -203.183 80.4404 -203.183C80.2925 -203.183 79.2561 -202.605 78.1374 -201.899C77.0187 -201.193 74.0159 -199.528 71.4639 -198.2C68.9125 -196.872 66.4706 -195.572 66.0381 -195.311C64.7244 -194.519 38.647 -180.397 36.6811 -179.414C34.6785 -178.412 31.075 -176.451 26.9828 -174.137C12.3378 -165.857 3.70582 -154.161 1.59474 -139.74C1.23721 -137.295 0.728185 -134.306 0.464496 -133.097C-0.165107 -130.213 -0.151477 -120.367 0.485989 -117.572C0.761735 -116.363 1.6089 -111.246 2.36851 -106.2C3.62771 -97.837 4.41144 -92.9181 6.54454 -79.9885C6.94873 -77.5377 7.90335 -71.4042 8.66559 -66.3584C9.42835 -61.3127 10.2378 -56.1228 10.4648 -54.8253C10.6923 -53.5278 11.3916 -49.0457 12.0186 -44.8649C12.6461 -40.6841 13.639 -34.4327 14.2245 -30.9727C16.1579 -19.5534 16.7388 -15.8507 17.8035 -8.16861C18.3833 -3.98785 19.0842 0.612274 19.361 2.05392C20.1924 6.37781 20.8524 10.622 21.7268 17.2567C22.4697 22.8964 22.9698 26.0905 24.639 35.8669C24.91 37.4527 25.4945 41.4631 25.938 44.7789C28.3322 62.672 30.0904 71.0078 32.8243 77.4333C39.7206 93.6389 52.5265 106.308 67.8729 112.106C76.2124 115.257 79.4506 115.813 89.3665 115.801C97.0092 115.792 98.9133 115.618 102.734 114.583C106.692 113.509 120.599 109.186 122.655 108.389C124.698 107.597 143.024 101.252 144.411 100.856C145.276 100.609 148.107 99.6666 150.702 98.7607C153.297 97.8548 156.127 96.9096 156.992 96.6601C157.857 96.4106 163.047 94.6538 168.526 92.7567C174.004 90.8595 183.676 87.5479 190.019 85.398C204.06 80.6379 212.177 77.827 218.066 75.6845C220.516 74.7922 223.229 73.857 224.094 73.6054C225.549 73.1818 239.352 68.3714 241.132 67.6679C241.564 67.4965 244.159 66.62 246.898 65.7199C249.637 64.8192 252.232 63.9501 252.665 63.7876C254.142 63.234 272.827 56.8378 284.582 52.8625C291.035 50.6802 296.697 48.6907 297.163 48.4417C297.629 48.1927 299.073 47.637 300.37 47.2071C301.667 46.7767 304.616 45.6837 306.923 44.7778C309.23 43.8719 312.532 42.6426 314.262 42.0466C315.992 41.4506 317.643 40.791 317.932 40.5808C318.22 40.3711 319.754 39.7835 321.339 39.2744C322.925 38.7654 324.458 38.1809 324.747 37.9749C325.035 37.7688 327.24 36.9259 329.646 36.1013L334.022 34.6019L336.723 35.989C338.21 36.7523 341.844 38.4524 344.799 39.7672C358.34 45.7917 361.193 47.0834 365.213 49.011C367.575 50.1434 369.653 51.0697 369.831 51.0697C370.01 51.0697 372.11 52.0028 374.499 53.1425C376.888 54.2827 380.943 56.1442 383.511 57.2792C389.25 59.8159 399.378 64.425 404.835 66.9833C407.075 68.0338 409.027 68.8936 409.171 68.8936C409.315 68.8936 411.492 69.8687 414.009 71.0597C418.745 73.3024 424.672 75.9099 430.118 78.1484C431.848 78.8592 434.287 79.9103 435.54 80.4838C436.792 81.0573 439.151 82.0178 440.782 82.619C442.413 83.2198 443.983 83.8824 444.272 84.0911C444.56 84.2997 446.565 85.1275 448.728 85.9312C450.89 86.7348 452.902 87.5799 453.2 87.8095C453.496 88.0391 455.501 88.9287 457.655 89.7869C463.034 91.9289 467.936 93.9498 470.746 95.1839C472.043 95.7537 480.536 99.3415 489.618 103.157C505.121 109.67 506.126 110.174 506.044 111.381C505.912 113.352 503.899 125.033 502.481 132.064C501.783 135.524 500.835 140.713 500.373 143.597C499.646 148.137 498.485 153.941 496.965 160.634C496.735 161.643 496.147 164.238 495.656 166.401C495.165 168.563 494.425 171.984 494.011 174.002C493.068 178.597 492.469 180.031 491.494 180.031C491.073 180.031 488.059 179.2 484.799 178.185C481.539 177.169 476.158 175.507 472.842 174.492C461.049 170.88 458.372 170.057 453.97 168.693C451.519 167.934 447.981 166.884 446.107 166.359C444.233 165.836 441.166 164.917 439.292 164.319C436.019 163.273 431.362 161.843 424.089 159.649C422.215 159.083 415.138 156.704 408.362 154.361C401.586 152.018 394.273 149.553 392.111 148.882C389.948 148.211 385.348 146.673 381.888 145.466C378.428 144.257 373.356 142.561 370.617 141.696C364.755 139.846 358.731 137.8 351.483 135.201C346.567 133.437 344.363 132.785 334.838 130.276C332.748 129.726 329.386 129.124 327.368 128.94C323.789 128.613 322.052 128.836 315.049 130.525C313.174 130.977 310.226 131.671 308.496 132.068C306.766 132.464 303.345 133.28 300.894 133.881C298.443 134.482 295.023 135.308 293.293 135.715C291.563 136.122 286.373 137.436 281.76 138.634C271.627 141.266 267.888 142.172 264.538 142.806C263.14 143.071 261.253 143.505 260.344 143.77C259.436 144.035 256.217 144.78 253.189 145.426C250.162 146.072 246.505 146.907 245.063 147.281C242.106 148.049 238.213 148.954 235.103 149.597C233.126 150.005 230.902 150.555 220.162 153.289C217.712 153.913 214.601 154.625 213.251 154.871C211.901 155.117 210.368 155.539 209.844 155.81C209.32 156.081 207.948 156.468 206.795 156.671C205.641 156.873 203.046 157.509 201.028 158.084C192.648 160.472 184.307 162.904 178.486 164.659C172.974 166.32 170.129 167.118 163.807 168.778C160.924 169.534 157.857 170.37 156.992 170.636C156.127 170.901 153.297 171.71 150.702 172.434C148.107 173.157 144.804 174.089 143.362 174.503C141.921 174.919 138.5 175.883 135.761 176.646C129.57 178.371 124.163 179.908 121.083 180.818C119.785 181.202 117.744 181.774 116.547 182.09C112.964 183.036 106.375 186.252 102.739 188.829C93.1158 195.649 86.3034 204.758 81.46 217.283C76.6229 229.793 75.619 238.478 77.5534 251.079C80.8802 272.753 91.1116 288.869 108.239 299.414C121.494 307.575 136.434 309.542 151.06 305.052C152.593 304.582 155.97 303.652 158.565 302.985C163.55 301.704 170.317 299.602 177.7 297.041C184.643 294.632 195.541 290.652 198.145 289.576C199.442 289.039 203.924 287.26 208.105 285.621C212.286 283.983 216.65 282.22 217.803 281.703C220.127 280.662 226.077 278.139 230.909 276.146C232.639 275.433 235.762 274.038 237.849 273.048C239.936 272.058 241.787 271.247 241.962 271.247C242.137 271.247 243.993 270.435 246.086 269.442C248.178 268.449 250.574 267.472 251.409 267.273C252.244 267.072 253.163 266.734 253.451 266.521C253.74 266.308 254.565 265.964 255.286 265.757C257.072 265.243 275.734 258.699 277.042 258.128C277.618 257.876 279.27 257.299 280.711 256.846C282.153 256.392 283.804 255.811 284.381 255.556C284.958 255.3 287.435 254.452 289.885 253.672C292.336 252.892 295.167 251.939 296.176 251.554C297.801 250.935 301.147 250.014 311.379 247.37C312.965 246.96 316.503 246.124 319.242 245.511C321.982 244.898 325.367 244.087 326.766 243.709C329.571 242.952 330.415 243.137 336.115 245.761C337.755 246.515 339.255 247.133 339.451 247.133C339.645 247.133 342.314 248.108 345.382 249.301C348.449 250.494 353.671 252.518 356.987 253.8C360.303 255.082 364.667 256.808 366.685 257.635C373.21 260.309 396.989 269.764 400.498 271.08C402.373 271.783 404.614 272.7 405.479 273.118C407.308 274.002 413.649 276.293 421.468 278.893C424.495 279.9 427.444 280.941 428.021 281.207C428.597 281.473 433.197 283.018 438.243 284.64C443.289 286.262 447.889 287.782 448.466 288.018C449.484 288.434 456.186 290.554 463.668 292.826C465.687 293.439 468.636 294.358 470.221 294.868C472.835 295.709 474.969 296.338 485.948 299.506C487.822 300.046 490.653 300.869 492.239 301.333C497.554 302.888 506.619 304.729 510.587 305.058C512.75 305.237 516.642 305.607 519.237 305.879C523.123 306.287 525.018 306.198 529.984 305.372C536.576 304.276 540.016 303.478 541.404 302.722C541.899 302.453 543.714 301.731 545.438 301.119C560.346 295.821 576.157 280.094 581.342 265.403C582.734 261.462 588.987 237.011 592.584 221.445C593.35 218.129 594.317 214.001 594.732 212.271C595.147 210.541 595.859 207.239 596.314 204.932C596.77 202.625 597.35 199.794 597.602 198.641C597.856 197.488 598.328 195.011 598.652 193.137C598.977 191.263 599.557 188.314 599.943 186.584C601.188 181.003 601.733 178.29 602.579 173.478C603.507 168.193 604.227 164.487 605.226 159.848C606.356 154.602 607.456 148.543 608.082 144.121C608.408 141.814 608.995 138.512 609.386 136.782C609.776 135.052 610.371 131.631 610.708 129.18C611.045 126.73 611.565 123.427 611.864 121.841C612.799 116.868 613.711 111.329 615.36 100.597C615.627 98.8603 616.092 96.5012 616.393 95.3547C616.694 94.2083 617.204 91.1472 617.524 88.5523C617.844 85.9574 618.426 82.3008 618.817 80.4267C620.53 72.2198 621.352 65.0085 622.082 51.7926C622.363 46.7049 621.539 41.1742 619.563 34.8635C617.008 26.7086 612.116 19.6618 605.735 14.9474C600.478 11.0634 598.086 9.99817 585.028 5.72986C581.712 4.64627 578.292 3.44418 577.427 3.05887C576.562 2.67303 573.613 1.54437 570.874 0.549896C568.135 -0.44458 562.119 -2.71817 557.506 -4.50214C552.893 -6.2861 548.175 -8.06271 547.021 -8.45013C545.868 -8.83807 543.037 -9.8923 540.731 -10.794C536.435 -12.472 534.048 -13.3722 527.625 -15.7343C525.607 -16.4767 523.483 -17.2997 522.907 -17.5629C522.33 -17.826 518.556 -19.2687 514.519 -20.7691C506.051 -23.916 496.063 -27.8058 493.025 -29.1395C488.725 -31.0273 470.332 -38.5741 470.032 -38.5741C469.861 -38.5741 468.004 -39.3709 465.908 -40.345C463.811 -41.3185 461.506 -42.2946 460.785 -42.5132C460.064 -42.7323 458.059 -43.5548 456.329 -44.3407C454.599 -45.1265 452.594 -45.9532 451.873 -46.1771C451.152 -46.4009 449.383 -47.1201 447.941 -47.776C444.859 -49.1783 437.536 -52.2377 433.722 -53.7166C432.244 -54.2896 430.003 -55.2274 428.741 -55.8004C427.48 -56.3739 422.791 -58.3749 418.322 -60.248C406.804 -65.0757 401.6 -67.311 399.181 -68.4695C398.024 -69.0241 395.075 -70.2865 392.628 -71.2752C387.532 -73.335 379.203 -76.9259 376.122 -78.3927C374.968 -78.9416 372.845 -79.8532 371.404 -80.4189C369.962 -80.984 367.485 -82.0408 365.899 -82.7669C356.577 -87.0363 352.467 -88.6163 342.941 -91.5908C340.025 -92.5019 331.767 -93.5991 327.755 -93.6091C323.861 -93.6185 315.191 -92.4416 311.903 -91.4571C308.911 -90.5612 302.802 -88.351 301.777 -87.7932C301.253 -87.5081 299.13 -86.6011 297.058 -85.7776C293.537 -84.3773 291.201 -83.4243 279.532 -78.627C277.009 -77.5896 273.765 -76.2895 272.324 -75.7375C270.882 -75.1855 269.255 -74.4772 268.708 -74.1632C268.161 -73.8497 266.156 -73.0083 264.253 -72.2933C262.348 -71.5787 260.083 -70.6734 259.218 -70.2823C258.353 -69.8907 252.927 -67.6533 247.16 -65.31C241.394 -62.9666 235.968 -60.7318 235.103 -60.3434C234.238 -59.9554 232.547 -59.3767 231.346 -59.058C230.144 -58.7387 228.493 -58.1296 227.676 -57.7034C226.86 -57.2772 225.928 -56.9275 225.606 -56.9254C225.284 -56.9238 223.868 -56.4756 222.46 -55.9294C221.053 -55.3836 217.777 -54.1821 215.182 -53.2594C212.587 -52.3373 210.108 -51.4016 209.672 -51.1803C209.235 -50.9591 207.466 -50.3694 205.74 -49.8692C204.013 -49.3691 202.365 -48.7704 202.076 -48.5392C201.788 -48.3086 200.727 -47.8772 199.717 -47.581C198.708 -47.2848 195.524 -46.1776 192.64 -45.1207C189.757 -44.0634 186.572 -42.9593 185.563 -42.6668C184.554 -42.3743 183.492 -41.9544 183.204 -41.7342C182.916 -41.514 181.382 -40.9321 179.797 -40.4409C178.211 -39.9497 176.441 -39.3369 175.865 -39.0795C174.795 -38.6019 170.205 -36.9443 166.429 -35.6725C165.275 -35.284 162.444 -34.2261 160.138 -33.3213C157.831 -32.4165 153.585 -30.8847 150.702 -29.9169C147.818 -28.9497 142.35 -27.0808 138.55 -25.7645C134.75 -24.4482 131.157 -23.3714 130.565 -23.3714C129.256 -23.3714 129.544 -22.0676 126.811 -40.4089C126.51 -42.4272 125.943 -45.8478 125.55 -48.0103C125.157 -50.1727 124.585 -53.3575 124.279 -55.0874C123.972 -56.8174 123.377 -60.1201 122.956 -62.4267C122.535 -64.7333 121.587 -70.513 120.851 -75.2704C120.115 -80.0278 119.295 -85.0997 119.03 -86.5414C118.764 -87.983 118.145 -91.5216 117.654 -94.4049C117.163 -97.2882 116.458 -101.043 116.089 -102.749C115.719 -104.455 115.528 -106.106 115.664 -106.419C115.801 -106.731 117.135 -107.581 118.629 -108.309C124.803 -111.315 140.848 -119.836 151.442 -125.736C157.666 -129.202 164.174 -132.793 165.904 -133.715C168.982 -135.356 171.205 -136.575 176.968 -139.781C178.538 -140.655 181.114 -142.067 182.693 -142.919C184.271 -143.772 186.855 -145.166 188.433 -146.019C190.012 -146.871 192.547 -148.259 194.069 -149.103C195.59 -149.947 198.132 -151.341 199.717 -152.2C205.416 -155.289 212.379 -159.36 216.493 -162.009C217.502 -162.658 219.389 -163.817 220.687 -164.585C221.984 -165.352 223.4 -166.21 223.832 -166.492C224.265 -166.774 227.095 -168.49 230.123 -170.306C233.15 -172.122 236.217 -173.97 236.938 -174.413C238.45 -175.344 247.176 -180.437 248.733 -181.299C250.158 -182.087 254.29 -184.479 262.101 -189.037C265.705 -191.14 271.603 -194.555 275.207 -196.626C278.811 -198.696 282.627 -200.959 283.687 -201.656C285.839 -203.069 287.094 -203.843 302.729 -213.406C308.784 -217.109 315.861 -221.48 318.456 -223.119C321.051 -224.759 323.66 -226.253 324.253 -226.44C325.021 -226.682 328.557 -225.147 336.572 -221.092C342.755 -217.964 359.608 -209.438 374.025 -202.145C425.485 -176.115 439.703 -168.907 450.563 -163.346C456.618 -160.245 466.761 -155.049 473.105 -151.799C494.16 -141.012 503.639 -136.323 525.004 -126.124C527.887 -124.748 533.784 -121.915 538.109 -119.829C542.434 -117.743 548.568 -114.798 551.74 -113.285C562.394 -108.203 571.106 -103.997 575.33 -101.898C577.637 -100.751 580.939 -99.2225 582.669 -98.5007C584.399 -97.7788 586.522 -96.8667 587.387 -96.473C592.714 -94.0505 597.327 -93.035 604.425 -92.7226C610.314 -92.4631 613.117 -92.8778 619.89 -95.0109C632.445 -98.9652 641.806 -106.228 649.37 -117.884C654.857 -126.34 656.986 -131.52 658.786 -140.799C659.733 -145.681 659.431 -157.834 658.284 -160.982C657.865 -162.136 657.103 -164.377 656.593 -165.963C654.29 -173.119 648.776 -181.609 643.542 -186.058C637.945 -190.815 635.161 -192.491 624.608 -197.455C621.436 -198.946 616.836 -201.113 614.385 -202.27C611.934 -203.426 608.042 -205.255 605.735 -206.333C599.026 -209.471 591.649 -212.978 583.018 -217.135C578.597 -219.264 574.897 -221.007 574.796 -221.007C574.695 -221.007 571.353 -222.563 567.37 -224.465C563.386 -226.367 558.476 -228.705 556.458 -229.661C554.439 -230.617 550.193 -232.628 547.021 -234.13C536.747 -238.994 531.937 -241.28 525.528 -244.341C522.068 -245.993 517.232 -248.275 514.781 -249.411C498.611 -256.907 490.714 -260.858 448.728 -282.453C443.394 -285.197 434.076 -289.982 428.021 -293.088C421.966 -296.194 412.883 -300.855 407.838 -303.446C402.792 -306.038 393.592 -310.754 387.393 -313.926C381.194 -317.099 371.05 -322.291 364.851 -325.465C349.117 -333.521 349.249 -333.455 345.454 -335.175C342.445 -336.54 338.51 -337.659 333.004 -338.716C332.066 -338.895 331.3 -339.26 331.3 -339.525C331.3 -340.117 319.4 -340.176 319.155 -339.585Z" fill="#EAD6F9"/>
</svg>
