<svg width="19" height="20" viewBox="0 0 19 20" fill="none" xmlns="http://www.w3.org/2000/svg">
<g clip-path="url(#clip0_19168_30520)">
<path d="M2.60773 7.61457C2.60773 7.17077 2.96832 6.78245 3.43985 6.78245H5.74205C6.18585 6.78245 6.57417 7.17077 6.57417 7.61457V8.00289C6.60191 8.00289 6.99023 8.00289 6.99023 8.00289H7.40629V7.61457C7.40629 7.17077 7.79461 6.78245 8.23841 6.78245H10.5406C11.0121 6.78245 11.3727 7.17077 11.3727 7.61457V8.50216C11.5391 8.58537 11.7056 8.66858 11.8443 8.77953V4.97952C11.8443 4.84083 11.7056 4.70215 11.5669 4.70215H2.41357C2.27489 4.70215 2.1362 4.84083 2.1362 4.97952V8.77953C2.27489 8.66858 2.44131 8.58537 2.60773 8.50216V7.61457V7.61457ZM12.7041 10.8044H1.30408C1.02671 10.8044 0.80481 11.0263 0.80481 11.3036V13.8555C0.80481 13.9941 0.943496 14.1328 1.08218 14.1328H12.926C13.0924 14.1328 13.2034 13.9941 13.2034 13.8555V11.3036C13.2034 10.9985 12.9815 10.8044 12.7041 10.8044ZM1.77562 15.0204C1.77562 15.1591 1.88656 15.2978 2.05299 15.2978H3.52307C3.68949 15.2978 3.80044 15.1591 3.80044 15.0204V14.6598H1.77562V15.0204ZM10.2078 15.0204C10.2078 15.1591 10.3464 15.2978 10.4851 15.2978H11.9552C12.0939 15.2978 12.2326 15.1591 12.2326 15.0204V14.6598H10.2078V15.0204Z" fill="#797979"/>
<path d="M10.8462 8.86277V7.61459C10.8462 7.47591 10.7075 7.33722 10.5688 7.33722H8.26665C8.12797 7.33722 7.98928 7.47591 7.98928 7.61459V8.5854C7.68417 8.5854 6.32504 8.5854 6.04767 8.5854V7.61459C6.04767 7.47591 5.93672 7.33722 5.7703 7.33722H3.4681C3.30168 7.33722 3.19073 7.47591 3.19073 7.61459V8.86277C2.49729 9.08467 1.97028 9.52847 1.77612 10.2219H12.2608C12.0389 9.55621 11.5397 9.11241 10.8462 8.86277ZM14.4798 15.0205C14.4798 15.1591 14.6185 15.2978 14.7572 15.2978H18.2798C18.4462 15.2978 18.5572 15.1591 18.5572 15.0205V13.2453H14.4798V15.0205ZM18.2798 11.2759H14.7572C14.6185 11.2759 14.4798 11.4146 14.4798 11.5533V12.6905H18.5572V11.5533C18.5572 11.3869 18.4462 11.2759 18.2798 11.2759ZM16.5878 12.219H16.4214C16.255 12.219 16.144 12.108 16.144 11.9416C16.144 11.7752 16.255 11.6642 16.4214 11.6642H16.5878C16.7543 11.6642 16.8652 11.7752 16.8652 11.9416C16.8652 12.108 16.7543 12.219 16.5878 12.219ZM15.2287 9.00146H16.2273V10.2219H15.8944C15.728 10.2219 15.617 10.3606 15.617 10.4993V10.6934H17.3922V10.4993C17.3922 10.3606 17.2535 10.2219 17.1149 10.2219H16.782V9.00146H17.9192C18.0024 9.00146 18.0857 8.97372 18.1411 8.91825C18.1966 8.86277 18.2243 8.77956 18.1966 8.69635L17.8083 6.5051C17.7805 6.36641 17.6696 6.2832 17.5309 6.2832H15.617C15.4784 6.2832 15.3674 6.36641 15.3397 6.5051L14.9513 8.69635C14.9513 8.77956 14.9513 8.86277 15.0068 8.91825C15.09 8.97372 15.1455 9.00146 15.2287 9.00146Z" fill="#797979"/>
</g>
<defs>
<clipPath id="clip0_19168_30520">
<rect width="18.3066" height="18.3066" fill="white" transform="translate(0.52771 0.84668)"/>
</clipPath>
</defs>
</svg>
