<svg width="15" height="15" viewBox="0 0 15 15" fill="none" xmlns="http://www.w3.org/2000/svg">
<path d="M7.69159 2.20679C6.74166 2.20679 5.83063 2.58415 5.15893 3.25585C4.48722 3.92756 4.10986 4.83858 4.10986 5.78852C4.10986 7.66893 7.30656 12.6057 7.44087 12.8147C7.46793 12.8566 7.50505 12.891 7.54885 12.9149C7.59265 12.9387 7.64172 12.9512 7.69159 12.9512C7.74146 12.9512 7.79054 12.9387 7.83434 12.9149C7.87813 12.891 7.91526 12.8566 7.94231 12.8147C8.07663 12.6057 11.2733 7.66893 11.2733 5.78852C11.2733 4.83858 10.896 3.92756 10.2243 3.25585C9.55255 2.58415 8.64153 2.20679 7.69159 2.20679ZM5.90073 5.78852C5.90073 5.43432 6.00576 5.08807 6.20254 4.79357C6.39933 4.49906 6.67902 4.26952 7.00626 4.13397C7.3335 3.99843 7.69358 3.96296 8.04097 4.03206C8.38837 4.10116 8.70747 4.27173 8.95793 4.52218C9.20838 4.77264 9.37895 5.09174 9.44805 5.43914C9.51715 5.78653 9.48168 6.14661 9.34614 6.47385C9.21059 6.80109 8.98105 7.08078 8.68654 7.27757C8.39204 7.47435 8.04579 7.57938 7.69159 7.57938C7.21663 7.57938 6.76111 7.3907 6.42526 7.05485C6.08941 6.719 5.90073 6.26348 5.90073 5.78852ZM7.69159 6.98243C7.45546 6.98243 7.22463 6.91241 7.02829 6.78122C6.83195 6.65003 6.67893 6.46357 6.58856 6.24541C6.4982 6.02725 6.47456 5.78719 6.52062 5.5556C6.56669 5.324 6.6804 5.11127 6.84737 4.9443C7.01434 4.77732 7.22708 4.66362 7.45867 4.61755C7.69027 4.57148 7.93032 4.59512 8.14848 4.68549C8.36664 4.77585 8.5531 4.92888 8.68429 5.12522C8.81548 5.32155 8.8855 5.55238 8.8855 5.78852C8.8855 6.10516 8.75972 6.40884 8.53581 6.63274C8.31191 6.85664 8.00824 6.98243 7.69159 6.98243Z" fill="#797979"/>
</svg>
